# MagicaVoxel @ Ephtracy

# group
o 

# material
mtllib Magnet.mtl
usemtl palette

# normals
vn -1 0 0
vn 1 0 0
vn 0 0 1
vn 0 0 -1
vn 0 -1 0
vn 0 1 0

# texcoords
vt 0.146484 0.5
vt 0.791016 0.5
vt 0.958984 0.5

# verts
v 0 2.2 0
v 0 2.2 -0.1
v 0 2.7 0
v 0 2.7 -0.1
v 0 2.8 0
v 0 2.8 -0.1
v 0.1 2.1 0
v 0.1 2.1 -0.1
v 0.1 2.2 0
v 0.1 2.2 -0.1
v 0.2 2 0
v 0.2 2 -0.1
v 0.2 2.1 0
v 0.2 2.1 -0.1
v 0.4 2.1 0
v 0.4 2.1 -0.1
v 0.4 2.2 0
v 0.4 2.2 -0.1
v 0.5 2.2 0
v 0.5 2.2 -0.1
v 0.5 2.7 0
v 0.5 2.7 -0.1
v 0.5 2.8 0
v 0.5 2.8 -0.1
v 0.1 2.2 0
v 0.1 2.2 -0.1
v 0.1 2.7 0
v 0.1 2.7 -0.1
v 0.1 2.8 0
v 0.1 2.8 -0.1
v 0.2 2.1 0
v 0.2 2.1 -0.1
v 0.2 2.2 0
v 0.2 2.2 -0.1
v 0.4 2 0
v 0.4 2 -0.1
v 0.4 2.1 0
v 0.4 2.1 -0.1
v 0.5 2.1 0
v 0.5 2.1 -0.1
v 0.5 2.2 0
v 0.5 2.2 -0.1
v 0.6 2.2 0
v 0.6 2.2 -0.1
v 0.6 2.7 0
v 0.6 2.7 -0.1
v 0.6 2.8 0
v 0.6 2.8 -0.1
v 0 2.2 0
v 0 2.7 0
v 0 2.8 0
v 0.1 2.1 0
v 0.1 2.2 0
v 0.1 2.7 0
v 0.1 2.8 0
v 0.2 2 0
v 0.2 2.1 0
v 0.2 2.2 0
v 0.3 2 0
v 0.3 2.1 0
v 0.4 2 0
v 0.4 2.1 0
v 0.4 2.2 0
v 0.5 2.1 0
v 0.5 2.2 0
v 0.5 2.7 0
v 0.5 2.8 0
v 0.6 2.2 0
v 0.6 2.7 0
v 0.6 2.8 0
v 0 2.2 -0.1
v 0 2.7 -0.1
v 0 2.8 -0.1
v 0.1 2.1 -0.1
v 0.1 2.2 -0.1
v 0.1 2.7 -0.1
v 0.1 2.8 -0.1
v 0.2 2 -0.1
v 0.2 2.1 -0.1
v 0.2 2.2 -0.1
v 0.3 2 -0.1
v 0.3 2.1 -0.1
v 0.4 2 -0.1
v 0.4 2.1 -0.1
v 0.4 2.2 -0.1
v 0.5 2.1 -0.1
v 0.5 2.2 -0.1
v 0.5 2.7 -0.1
v 0.5 2.8 -0.1
v 0.6 2.2 -0.1
v 0.6 2.7 -0.1
v 0.6 2.8 -0.1
v 0.2 2 0
v 0.3 2 0
v 0.4 2 0
v 0.2 2 -0.1
v 0.3 2 -0.1
v 0.4 2 -0.1
v 0.1 2.1 0
v 0.2 2.1 0
v 0.4 2.1 0
v 0.5 2.1 0
v 0.1 2.1 -0.1
v 0.2 2.1 -0.1
v 0.4 2.1 -0.1
v 0.5 2.1 -0.1
v 0 2.2 0
v 0.1 2.2 0
v 0.5 2.2 0
v 0.6 2.2 0
v 0 2.2 -0.1
v 0.1 2.2 -0.1
v 0.5 2.2 -0.1
v 0.6 2.2 -0.1
v 0.2 2.1 0
v 0.3 2.1 0
v 0.4 2.1 0
v 0.2 2.1 -0.1
v 0.3 2.1 -0.1
v 0.4 2.1 -0.1
v 0.1 2.2 0
v 0.2 2.2 0
v 0.4 2.2 0
v 0.5 2.2 0
v 0.1 2.2 -0.1
v 0.2 2.2 -0.1
v 0.4 2.2 -0.1
v 0.5 2.2 -0.1
v 0 2.8 0
v 0.1 2.8 0
v 0.5 2.8 0
v 0.6 2.8 0
v 0 2.8 -0.1
v 0.1 2.8 -0.1
v 0.5 2.8 -0.1
v 0.6 2.8 -0.1

# faces
f 3/1/1 2/1/1 1/1/1
f 4/1/1 2/1/1 3/1/1
f 5/3/1 4/3/1 3/3/1
f 6/3/1 4/3/1 5/3/1
f 9/1/1 8/1/1 7/1/1
f 10/1/1 8/1/1 9/1/1
f 13/1/1 12/1/1 11/1/1
f 14/1/1 12/1/1 13/1/1
f 17/2/1 16/2/1 15/2/1
f 18/2/1 16/2/1 17/2/1
f 21/2/1 20/2/1 19/2/1
f 22/2/1 20/2/1 21/2/1
f 23/3/1 22/3/1 21/3/1
f 24/3/1 22/3/1 23/3/1
f 25/1/2 26/1/2 27/1/2
f 27/1/2 26/1/2 28/1/2
f 27/3/2 28/3/2 29/3/2
f 29/3/2 28/3/2 30/3/2
f 31/1/2 32/1/2 33/1/2
f 33/1/2 32/1/2 34/1/2
f 35/2/2 36/2/2 37/2/2
f 37/2/2 36/2/2 38/2/2
f 39/2/2 40/2/2 41/2/2
f 41/2/2 40/2/2 42/2/2
f 43/2/2 44/2/2 45/2/2
f 45/2/2 44/2/2 46/2/2
f 45/3/2 46/3/2 47/3/2
f 47/3/2 46/3/2 48/3/2
f 53/1/3 50/1/3 49/1/3
f 54/3/3 51/3/3 50/3/3
f 54/1/3 50/1/3 53/1/3
f 55/3/3 51/3/3 54/3/3
f 57/1/3 53/1/3 52/1/3
f 58/1/3 53/1/3 57/1/3
f 59/1/3 57/1/3 56/1/3
f 60/1/3 57/1/3 59/1/3
f 61/2/3 60/2/3 59/2/3
f 62/2/3 60/2/3 61/2/3
f 64/2/3 63/2/3 62/2/3
f 65/2/3 63/2/3 64/2/3
f 68/2/3 66/2/3 65/2/3
f 69/3/3 67/3/3 66/3/3
f 69/2/3 66/2/3 68/2/3
f 70/3/3 67/3/3 69/3/3
f 71/1/4 72/1/4 75/1/4
f 72/3/4 73/3/4 76/3/4
f 75/1/4 72/1/4 76/1/4
f 76/3/4 73/3/4 77/3/4
f 74/1/4 75/1/4 79/1/4
f 79/1/4 75/1/4 80/1/4
f 78/1/4 79/1/4 81/1/4
f 81/1/4 79/1/4 82/1/4
f 81/2/4 82/2/4 83/2/4
f 83/2/4 82/2/4 84/2/4
f 84/2/4 85/2/4 86/2/4
f 86/2/4 85/2/4 87/2/4
f 87/2/4 88/2/4 90/2/4
f 88/3/4 89/3/4 91/3/4
f 90/2/4 88/2/4 91/2/4
f 91/3/4 89/3/4 92/3/4
f 96/1/5 94/1/5 93/1/5
f 97/2/5 95/2/5 94/2/5
f 97/1/5 94/1/5 96/1/5
f 98/2/5 95/2/5 97/2/5
f 103/1/5 100/1/5 99/1/5
f 104/1/5 100/1/5 103/1/5
f 105/2/5 102/2/5 101/2/5
f 106/2/5 102/2/5 105/2/5
f 111/1/5 108/1/5 107/1/5
f 112/1/5 108/1/5 111/1/5
f 113/2/5 110/2/5 109/2/5
f 114/2/5 110/2/5 113/2/5
f 115/1/6 116/1/6 118/1/6
f 116/2/6 117/2/6 119/2/6
f 118/1/6 116/1/6 119/1/6
f 119/2/6 117/2/6 120/2/6
f 121/1/6 122/1/6 125/1/6
f 125/1/6 122/1/6 126/1/6
f 123/2/6 124/2/6 127/2/6
f 127/2/6 124/2/6 128/2/6
f 129/3/6 130/3/6 133/3/6
f 133/3/6 130/3/6 134/3/6
f 131/3/6 132/3/6 135/3/6
f 135/3/6 132/3/6 136/3/6
